/* XPM */
static char *result[] = {
/* columns rows colors chars-per-pixel */
"32 32 24 1 ",
"  c #223B2E",
". c gray23",
"X c #693920",
"o c #375D3C",
"O c #6C4928",
"+ c #3B6349",
"@ c #327553",
"# c gray37",
"$ c #45754B",
"% c #5D7E5D",
"& c gray39",
"* c #757375",
"= c #7D7B7D",
"- c #916236",
"; c #AF7641",
": c #3F9656",
"> c #538F5B",
", c #8CD158",
"< c #82B28B",
"1 c #A5B2A4",
"2 c #A7A4B3",
"3 c #94C690",
"4 c #DDE4DD",
"5 c None",
/* pixels */
"55555555555555555555555555555555",
"55555555555555555555555555555555",
"555555555555555555555,5555555555",
"5555555555555.     .5:,555555555",
"555555555555 >$$$$$> 55555555555",
"55555555555 >$$$$,$$,.5555555555",
"555555555. ><$oo,oo$>> .55555555",
"55555555.%%&>o ,,@ o>&%% 5555555",
"55555,5.%%.+&.@:,:@ &&.%%.555555",
"5555,:X %<.<+.1:::1.&1.1% 555555",
"555555,<12$3..*111*..1*221.55555",
"55555X-X2<$3.*..*..*.2*221 5,555",
"5555X.:-X -<.*4.2.4*.2& &*=.:,55",
"5555.  :--.$$.22222.&&  .&OO.555",
"555.%.- X ..$.*222*.&  5.O-.2.55",
"555.2%XX ..%%*.***.1,%.5..=-;.55",
"555.1X%X 5..%%*...**:,.5.##=-555",
"555.X%%X555..&&***&&& 5.2*2&.555",
"5555X$%1X555.**121**.X5.2.*&.555",
"5555X.1.2.55.*12<21>.555.*2.5555",
"55555X*.2.5..><>>2<-X.555..55555",
"55555.2**.-...><<>-..X5555555555",
"555555...-X.**.**-.**.5555555555",
"555555555-.1XX*.XOX*1-X555555555",
"5555555555-X21XX.&O--O.555555555",
"5555555555.111-O.&&121.555555555",
"5555555555.****&.&&&**.555555555",
"5555555555.*&*..5..*&*.555555555",
"55555555555555555555555555555555",
"55555555555555555555555555555555",
"55555555555555555555555555555555",
"55555555555555555555555555555555"
};
