/* XPM */
static char *result[] = {
/* columns rows colors chars-per-pixel */
"32 32 4 1 ",
"  c #45283C",
". c #663931",
"X c #8F563B",
"o c None",
/* pixels */
"oooooooooooooooooooooooooooooooo",
"oooooooooooooooooooooooooooooooo",
"oooooooooooooooooooooooooooooooo",
"oooooooooooooooooooooooooooooooo",
"oooooooooooooooooooooooooooooooo",
"oooooooooooooooooooooooooooooooo",
"oooooooooooooooooooooooooooooooo",
"oooooooooooooooooooooooooooooooo",
"oooooooooooooooooooooooooooooooo",
"oooooooooooooooooooooooooooooooo",
"oooooooooooooXXXoooooooooooooooo",
"oooooooooooooX..Xooooooooooooooo",
"oooooooooooo. ... .XXXXXXXoooooo",
"ooooXXX..XXXX ... ........XXXooo",
"oooX..........    ............oo",
"ooo......... ..    .  ........oo",
"ooo...........................oo",
"ooo...XXX.....XXXX....XXXXXXX.oo",
"ooo......  ..                .oo",
"ooo................        ...oo",
"ooo........................  ooo",
"ooo..                        ooo",
"oooo ..            ......   oooo",
"ooooo      ooooooo         ooooo",
"oooooooooooooooooooooooooooooooo",
"oooooooooooooooooooooooooooooooo",
"oooooooooooooooooooooooooooooooo",
"oooooooooooooooooooooooooooooooo",
"oooooooooooooooooooooooooooooooo",
"oooooooooooooooooooooooooooooooo",
"oooooooooooooooooooooooooooooooo",
"oooooooooooooooooooooooooooooooo"
};
